<?xml version="1.0" encoding="UTF-8"?>
<svg width="900" height="600" viewBox="0 0 900 600" xmlns="http://www.w3.org/2000/svg">
  <!-- Background rectangle -->
  <rect width="900" height="600" fill="#f5f7fa" rx="10" ry="10"/>
  
  <!-- Main System Title -->
  <rect x="250" y="40" width="400" height="60" rx="10" ry="10" fill="#2c3e50"/>
  <text x="450" y="75" fill="white" font-family="Arial, sans-serif" font-size="20" text-anchor="middle" font-weight="bold">AI-based Virtual Space Tokenization System</text>
  
  <!-- Module 1: Virtual Space Tokenization Module -->
  <rect x="50" y="150" width="220" height="120" rx="10" ry="10" fill="#3498db"/>
  <text x="160" y="195" fill="white" font-family="Arial, sans-serif" font-size="16" text-anchor="middle" font-weight="bold">Virtual Space</text>
  <text x="160" y="220" fill="white" font-family="Arial, sans-serif" font-size="16" text-anchor="middle" font-weight="bold">Tokenization Module</text>
  
  <!-- Module Components -->
  <rect x="70" y="280" width="180" height="30" rx="5" ry="5" fill="#2980b9"/>
  <text x="160" y="300" fill="white" font-family="Arial, sans-serif" font-size="12" text-anchor="middle">Token Generator</text>
  
  <rect x="70" y="320" width="180" height="30" rx="5" ry="5" fill="#2980b9"/>
  <text x="160" y="340" fill="white" font-family="Arial, sans-serif" font-size="12" text-anchor="middle">Smart Contract Manager</text>
  
  <rect x="70" y="360" width="180" height="30" rx="5" ry="5" fill="#2980b9"/>
  <text x="160" y="380" fill="white" font-family="Arial, sans-serif" font-size="12" text-anchor="middle">Blockchain Integration</text>
  
  <rect x="70" y="400" width="180" height="30" rx="5" ry="5" fill="#2980b9"/>
  <text x="160" y="420" fill="white" font-family="Arial, sans-serif" font-size="12" text-anchor="middle">Digital Wallet Interface</text>
  
  <rect x="70" y="440" width="180" height="30" rx="5" ry="5" fill="#2980b9"/>
  <text x="160" y="460" fill="white" font-family="Arial, sans-serif" font-size="12" text-anchor="middle">Privacy Protection Module</text>
  
  <!-- Module 2: AI-based Virtual Space Design Module -->
  <rect x="340" y="150" width="220" height="120" rx="10" ry="10" fill="#2ecc71"/>
  <text x="450" y="195" fill="white" font-family="Arial, sans-serif" font-size="16" text-anchor="middle" font-weight="bold">AI-based Virtual Space</text>
  <text x="450" y="220" fill="white" font-family="Arial, sans-serif" font-size="16" text-anchor="middle" font-weight="bold">Design Module</text>
  
  <!-- Module Components -->
  <rect x="360" y="280" width="180" height="30" rx="5" ry="5" fill="#27ae60"/>
  <text x="450" y="300" fill="white" font-family="Arial, sans-serif" font-size="12" text-anchor="middle">NLP Engine</text>
  
  <rect x="360" y="320" width="180" height="30" rx="5" ry="5" fill="#27ae60"/>
  <text x="450" y="340" fill="white" font-family="Arial, sans-serif" font-size="12" text-anchor="middle">3D Modeling AI</text>
  
  <rect x="360" y="360" width="180" height="30" rx="5" ry="5" fill="#27ae60"/>
  <text x="450" y="380" fill="white" font-family="Arial, sans-serif" font-size="12" text-anchor="middle">Style Transfer Algorithm</text>
  
  <rect x="360" y="400" width="180" height="30" rx="5" ry="5" fill="#27ae60"/>
  <text x="450" y="420" fill="white" font-family="Arial, sans-serif" font-size="12" text-anchor="middle">Optimization Engine</text>
  
  <rect x="360" y="440" width="180" height="30" rx="5" ry="5" fill="#27ae60"/>
  <text x="450" y="460" fill="white" font-family="Arial, sans-serif" font-size="12" text-anchor="middle">Collaboration Tools</text>
  
  <!-- Module 3: Virtual Economy Activation Module -->
  <rect x="630" y="150" width="220" height="120" rx="10" ry="10" fill="#9b59b6"/>
  <text x="740" y="195" fill="white" font-family="Arial, sans-serif" font-size="16" text-anchor="middle" font-weight="bold">Virtual Economy</text>
  <text x="740" y="220" fill="white" font-family="Arial, sans-serif" font-size="16" text-anchor="middle" font-weight="bold">Activation Module</text>
  
  <!-- Module Components -->
  <rect x="650" y="280" width="180" height="30" rx="5" ry="5" fill="#8e44ad"/>
  <text x="740" y="300" fill="white" font-family="Arial, sans-serif" font-size="12" text-anchor="middle">Trading Platform</text>
  
  <rect x="650" y="320" width="180" height="30" rx="5" ry="5" fill="#8e44ad"/>
  <text x="740" y="340" fill="white" font-family="Arial, sans-serif" font-size="12" text-anchor="middle">AI Value Assessment</text>
  
  <rect x="650" y="360" width="180" height="30" rx="5" ry="5" fill="#8e44ad"/>
  <text x="740" y="380" fill="white" font-family="Arial, sans-serif" font-size="12" text-anchor="middle">Content Marketplace</text>
  
  <rect x="650" y="400" width="180" height="30" rx="5" ry="5" fill="#8e44ad"/>
  <text x="740" y="420" fill="white" font-family="Arial, sans-serif" font-size="12" text-anchor="middle">Advertising System</text>
  
  <rect x="650" y="440" width="180" height="30" rx="5" ry="5" fill="#8e44ad"/>
  <text x="740" y="460" fill="white" font-family="Arial, sans-serif" font-size="12" text-anchor="middle">Virtual Currency System</text>
  
  <!-- Module 4: Real-time Rendering and Interaction Module -->
  <rect x="195" y="500" width="220" height="70" rx="10" ry="10" fill="#e67e22"/>
  <text x="305" y="535" fill="white" font-family="Arial, sans-serif" font-size="16" text-anchor="middle" font-weight="bold">Real-time Rendering &amp;</text>
  <text x="305" y="560" fill="white" font-family="Arial, sans-serif" font-size="16" text-anchor="middle" font-weight="bold">Interaction Module</text>
  
  <!-- Module 5: Multimodal Content Generation Module -->
  <rect x="485" y="500" width="220" height="70" rx="10" ry="10" fill="#1abc9c"/>
  <text x="595" y="535" fill="white" font-family="Arial, sans-serif" font-size="16" text-anchor="middle" font-weight="bold">Multimodal Content</text>
  <text x="595" y="560" fill="white" font-family="Arial, sans-serif" font-size="16" text-anchor="middle" font-weight="bold">Generation Module</text>
  
  <!-- Connection lines -->
  <!-- Horizontal connecting lines -->
  <line x1="270" y1="210" x2="340" y2="210" stroke="#7f8c8d" stroke-width="2"/>
  <line x1="560" y1="210" x2="630" y2="210" stroke="#7f8c8d" stroke-width="2"/>
  
  <!-- Vertical connecting lines to bottom modules -->
  <line x1="160" y1="270" x2="160" y2="480" stroke="#7f8c8d" stroke-width="2"/>
  <line x1="450" y1="270" x2="450" y2="480" stroke="#7f8c8d" stroke-width="2"/>
  <line x1="740" y1="270" x2="740" y2="480" stroke="#7f8c8d" stroke-width="2"/>
  
  <!-- Horizontal line connecting all vertical lines -->
  <line x1="160" y1="480" x2="740" y2="480" stroke="#7f8c8d" stroke-width="2"/>
  
  <!-- Vertical lines to bottom modules -->
  <line x1="305" y1="480" x2="305" y2="500" stroke="#7f8c8d" stroke-width="2"/>
  <line x1="595" y1="480" x2="595" y2="500" stroke="#7f8c8d" stroke-width="2"/>
  
  <!-- Core Technologies Banner -->
  <rect x="300" y="120" width="300" height="20" rx="5" ry="5" fill="#34495e"/>
  <text x="450" y="135" fill="white" font-family="Arial, sans-serif" font-size="12" text-anchor="middle">Core Technologies: Blockchain, AI, 6G, Edge Computing</text>
</svg>