<?xml version="1.0" encoding="UTF-8"?>
<svg width="900" height="600" viewBox="0 0 900 600" xmlns="http://www.w3.org/2000/svg">
  <!-- Background rectangle -->
  <rect width="900" height="600" fill="#f5f7fa" rx="10" ry="10"/>

  <!-- Title -->
  <text x="450" y="60" fill="#34495e" font-family="Arial, sans-serif" font-size="28" text-anchor="middle" font-weight="bold">Technology Stack for Virtual Space Tokenization System</text>

  <!-- Layer 1: Hardware Layer -->
  <g>
    <rect x="150" y="500" width="600" height="70" rx="5" ry="5" fill="#95a5a6"/>
    <text x="450" y="535" fill="white" font-family="Arial, sans-serif" font-size="24" text-anchor="middle" font-weight="bold">Hardware Layer</text>
    
    <!-- Hardware components -->
    <g>
      <rect x="180" y="540" width="80" height="20" rx="3" ry="3" fill="#7f8c8d"/>
      <text x="220" y="555" fill="white" font-family="Arial, sans-serif" font-size="10" text-anchor="middle">AR/VR Headsets</text>
    </g>
    
    <g>
      <rect x="270" y="540" width="80" height="20" rx="3" ry="3" fill="#7f8c8d"/>
      <text x="310" y="555" fill="white" font-family="Arial, sans-serif" font-size="10" text-anchor="middle">Haptic Devices</text>
    </g>
    
    <g>
      <rect x="360" y="540" width="80" height="20" rx="3" ry="3" fill="#7f8c8d"/>
      <text x="400" y="555" fill="white" font-family="Arial, sans-serif" font-size="10" text-anchor="middle">Edge AI Chips</text>
    </g>
    
    <g>
      <rect x="450" y="540" width="80" height="20" rx="3" ry="3" fill="#7f8c8d"/>
      <text x="490" y="555" fill="white" font-family="Arial, sans-serif" font-size="10" text-anchor="middle">Biometric Sensors</text>
    </g>
    
    <g>
      <rect x="540" y="540" width="80" height="20" rx="3" ry="3" fill="#7f8c8d"/>
      <text x="580" y="555" fill="white" font-family="Arial, sans-serif" font-size="10" text-anchor="middle">6G Modules</text>
    </g>
  </g>

  <!-- Layer 2: Infrastructure Layer -->
  <g>
    <rect x="150" y="420" width="600" height="70" rx="5" ry="5" fill="#e67e22"/>
    <text x="450" y="455" fill="white" font-family="Arial, sans-serif" font-size="24" text-anchor="middle" font-weight="bold">Infrastructure Layer</text>
    
    <!-- Infrastructure components -->
    <g>
      <rect x="180" y="460" width="80" height="20" rx="3" ry="3" fill="#d35400"/>
      <text x="220" y="475" fill="white" font-family="Arial, sans-serif" font-size="10" text-anchor="middle">Edge Computing</text>
    </g>
    
    <g>
      <rect x="270" y="460" width="80" height="20" rx="3" ry="3" fill="#d35400"/>
      <text x="310" y="475" fill="white" font-family="Arial, sans-serif" font-size="10" text-anchor="middle">6G Network</text>
    </g>
    
    <g>
      <rect x="360" y="460" width="80" height="20" rx="3" ry="3" fill="#d35400"/>
      <text x="400" y="475" fill="white" font-family="Arial, sans-serif" font-size="10" text-anchor="middle">Distributed Storage</text>
    </g>
    
    <g>
      <rect x="450" y="460" width="80" height="20" rx="3" ry="3" fill="#d35400"/>
      <text x="490" y="475" fill="white" font-family="Arial, sans-serif" font-size="10" text-anchor="middle">Cloud Services</text>
    </g>
    
    <g>
      <rect x="540" y="460" width="80" height="20" rx="3" ry="3" fill="#d35400"/>
      <text x="580" y="475" fill="white" font-family="Arial, sans-serif" font-size="10" text-anchor="middle">Quantum Computing</text>
    </g>
  </g>

  <!-- Layer 3: Core Technologies Layer -->
  <g>
    <rect x="150" y="340" width="600" height="70" rx="5" ry="5" fill="#8e44ad"/>
    <text x="450" y="375" fill="white" font-family="Arial, sans-serif" font-size="24" text-anchor="middle" font-weight="bold">Core Technologies Layer</text>
    
    <!-- Core Tech components -->
    <g>
      <rect x="180" y="380" width="80" height="20" rx="3" ry="3" fill="#9b59b6"/>
      <text x="220" y="395" fill="white" font-family="Arial, sans-serif" font-size="10" text-anchor="middle">Blockchain</text>
    </g>
    
    <g>
      <rect x="270" y="380" width="80" height="20" rx="3" ry="3" fill="#9b59b6"/>
      <text x="310" y="395" fill="white" font-family="Arial, sans-serif" font-size="10" text-anchor="middle">AI Algorithms</text>
    </g>
    
    <g>
      <rect x="360" y="380" width="80" height="20" rx="3" ry="3" fill="#9b59b6"/>
      <text x="400" y="395" fill="white" font-family="Arial, sans-serif" font-size="10" text-anchor="middle">XR Technologies</text>
    </g>
    
    <g>
      <rect x="450" y="380" width="80" height="20" rx="3" ry="3" fill="#9b59b6"/>
      <text x="490" y="395" fill="white" font-family="Arial, sans-serif" font-size="10" text-anchor="middle">Data Analytics</text>
    </g>
    
    <g>
      <rect x="540" y="380" width="80" height="20" rx="3" ry="3" fill="#9b59b6"/>
      <text x="580" y="395" fill="white" font-family="Arial, sans-serif" font-size="10" text-anchor="middle">Cryptography</text>
    </g>
  </g>

  <!-- Layer 4: Platform Services Layer -->
  <g>
    <rect x="150" y="260" width="600" height="70" rx="5" ry="5" fill="#3498db"/>
    <text x="450" y="295" fill="white" font-family="Arial, sans-serif" font-size="24" text-anchor="middle" font-weight="bold">Platform Services Layer</text>
    
    <!-- Platform services components -->
    <g>
      <rect x="180" y="300" width="80" height="20" rx="3" ry="3" fill="#2980b9"/>
      <text x="220" y="315" fill="white" font-family="Arial, sans-serif" font-size="10" text-anchor="middle">Smart Contracts</text>
    </g>
    
    <g>
      <rect x="270" y="300" width="80" height="20" rx="3" ry="3" fill="#2980b9"/>
      <text x="310" y="315" fill="white" font-family="Arial, sans-serif" font-size="10" text-anchor="middle">AI Engine</text>
    </g>
    
    <g>
      <rect x="360" y="300" width="80" height="20" rx="3" ry="3" fill="#2980b9"/>
      <text x="400" y="315" fill="white" font-family="Arial, sans-serif" font-size="10" text-anchor="middle">Rendering Engine</text>
    </g>
    
    <g>
      <rect x="450" y="300" width="80" height="20" rx="3" ry="3" fill="#2980b9"/>
      <text x="490" y="315" fill="white" font-family="Arial, sans-serif" font-size="10" text-anchor="middle">Identity Services</text>
    </g>
    
    <g>
      <rect x="540" y="300" width="80" height="20" rx="3" ry="3" fill="#2980b9"/>
      <text x="580" y="315" fill="white" font-family="Arial, sans-serif" font-size="10" text-anchor="middle">Security Services</text>
    </g>
  </g>

  <!-- Layer 5: Applications Layer -->
  <g>
    <rect x="150" y="180" width="600" height="70" rx="5" ry="5" fill="#2ecc71"/>
    <text x="450" y="215" fill="white" font-family="Arial, sans-serif" font-size="24" text-anchor="middle" font-weight="bold">Applications Layer</text>
    
    <!-- Applications components -->
    <g>
      <rect x="180" y="220" width="80" height="20" rx="3" ry="3" fill="#27ae60"/>
      <text x="220" y="235" fill="white" font-family="Arial, sans-serif" font-size="10" text-anchor="middle">VR/AR Apps</text>
    </g>
    
    <g>
      <rect x="270" y="220" width="80" height="20" rx="3" ry="3" fill="#27ae60"/>
      <text x="310" y="235" fill="white" font-family="Arial, sans-serif" font-size="10" text-anchor="middle">Marketplace</text>
    </g>
    
    <g>
      <rect x="360" y="220" width="80" height="20" rx="3" ry="3" fill="#27ae60"/>
      <text x="400" y="235" fill="white" font-family="Arial, sans-serif" font-size="10" text-anchor="middle">Wallet Interface</text>
    </g>
    
    <g>
      <rect x="450" y="220" width="80" height="20" rx="3" ry="3" fill="#27ae60"/>
      <text x="490" y="235" fill="white" font-family="Arial, sans-serif" font-size="10" text-anchor="middle">Design Tools</text>
    </g>
    
    <g>
      <rect x="540" y="220" width="80" height="20" rx="3" ry="3" fill="#27ae60"/>
      <text x="580" y="235" fill="white" font-family="Arial, sans-serif" font-size="10" text-anchor="middle">API Services</text>
    </g>
  </g>

  <!-- Vertical connectors -->
  <line x1="220" y1="250" x2="220" y2="260" stroke="#34495e" stroke-width="2"/>
  <line x1="310" y1="250" x2="310" y2="260" stroke="#34495e" stroke-width="2"/>
  <line x1="400" y1="250" x2="400" y2="260" stroke="#34495e" stroke-width="2"/>
  <line x1="490" y1="250" x2="490" y2="260" stroke="#34495e" stroke-width="2"/>
  <line x1="580" y1="250" x2="580" y2="260" stroke="#34495e" stroke-width="2"/>
  
  <line x1="220" y1="330" x2="220" y2="340" stroke="#34495e" stroke-width="2"/>
  <line x1="310" y1="330" x2="310" y2="340" stroke="#34495e" stroke-width="2"/>
  <line x1="400" y1="330" x2="400" y2="340" stroke="#34495e" stroke-width="2"/>
  <line x1="490" y1="330" x2="490" y2="340" stroke="#34495e" stroke-width="2"/>
  <line x1="580" y1="330" x2="580" y2="340" stroke="#34495e" stroke-width="2"/>
  
  <line x1="220" y1="410" x2="220" y2="420" stroke="#34495e" stroke-width="2"/>
  <line x1="310" y1="410" x2="310" y2="420" stroke="#34495e" stroke-width="2"/>
  <line x1="400" y1="410" x2="400" y2="420" stroke="#34495e" stroke-width="2"/>
  <line x1="490" y1="410" x2="490" y2="420" stroke="#34495e" stroke-width="2"/>
  <line x1="580" y1="410" x2="580" y2="420" stroke="#34495e" stroke-width="2"/>
  
  <line x1="220" y1="490" x2="220" y2="500" stroke="#34495e" stroke-width="2"/>
  <line x1="310" y1="490" x2="310" y2="500" stroke="#34495e" stroke-width="2"/>
  <line x1="400" y1="490" x2="400" y2="500" stroke="#34495e" stroke-width="2"/>
  <line x1="490" y1="490" x2="490" y2="500" stroke="#34495e" stroke-width="2"/>
  <line x1="580" y1="490" x2="580" y2="500" stroke="#34495e" stroke-width="2"/>

  <!-- Flow Indicator Arrows -->
  <polygon points="145,215 155,215 150,200" fill="#34495e"/>
  <polygon points="145,295 155,295 150,280" fill="#34495e"/>
  <polygon points="145,375 155,375 150,360" fill="#34495e"/>
  <polygon points="145,455 155,455 150,440" fill="#34495e"/>
  <polygon points="145,535 155,535 150,520" fill="#34495e"/>

  <!-- Legend -->
  <rect x="700" y="120" width="150" height="120" rx="5" ry="5" fill="#ecf0f1" stroke="#bdc3c7"/>
  <text x="775" y="140" fill="#34495e" font-family="Arial, sans-serif" font-size="14" text-anchor="middle" font-weight="bold">Legend</text>
  
  <rect x="715" y="150" width="15" height="15" fill="#2ecc71"/>
  <text x="780" y="162" fill="#34495e" font-family="Arial, sans-serif" font-size="12" text-anchor="middle">Applications</text>
  
  <rect x="715" y="170" width="15" height="15" fill="#3498db"/>
  <text x="780" y="182" fill="#34495e" font-family="Arial, sans-serif" font-size="12" text-anchor="middle">Platform Services</text>
  
  <rect x="715" y="190" width="15" height="15" fill="#8e44ad"/>
  <text x="780" y="202" fill="#34495e" font-family="Arial, sans-serif" font-size="12" text-anchor="middle">Core Technologies</text>
  
  <rect x="715" y="210" width="15" height="15" fill="#e67e22"/>
  <text x="780" y="222" fill="#34495e" font-family="Arial, sans-serif" font-size="12" text-anchor="middle">Infrastructure</text>
  
  <rect x="715" y="230" width="15" height="15" fill="#95a5a6"/>
  <text x="780" y="242" fill="#34495e" font-family="Arial, sans-serif" font-size="12" text-anchor="middle">Hardware</text>
</svg>